# xmcd CD database file
#
# Track frame offsets:
#	150
#	12590
#	23575
#	38257
#	60518
#	73535
#	86367
#	106565
#	120467
#	138276
#
# Disc length: 2125 seconds
#
# Revision: 0
# Processed by: cddbd v1.5.2PL0 Copyright (c) Steve Scherf et al.
# Submitted via: CDex 1.70beta2
#
DISCID=69084b0a
DTITLE=Jackson Taylor - Humboldt County
DYEAR=2001
DGENRE=Country
TTITLE0=Lucky Night
TTITLE1=That's All Right Mamma
TTITLE2=Mas Mas Tequila
TTITLE3=It Hurts Me, to Hurt Her
TTITLE4=Humboldt County Grown
TTITLE5=To Love Somebody
TTITLE6=It Won't Hurt/Today I Started Loving Her Again
TTITLE7=Ride Me Down Easy
TTITLE8=Leave Me Alone
TTITLE9=The Girls Get Prettier at Closing Time
EXTD=YEAR: 2001
EXTT0=
EXTT1=
EXTT2=
EXTT3=
EXTT4=
EXTT5=
EXTT6=
EXTT7=
EXTT8=
EXTT9=
PLAYORDER=
